
  <svg xmlns="http://www.w3.org/2000/svg" viewBox="0 0 500 500">
    <rect
    y="0"
    height="17.5"
    width="500" 
    fill="aquamarine"/>
<rect
    y="25"
    height="17.5"
    width="55.55555555555555" 
    fill="aquamarine"/>
<rect
    y="50"
    height="17.5"
    width="194.44444444444446" 
    fill="aquamarine"/>
<rect
    y="75"
    height="17.5"
    width="37.03703703703704" 
    fill="aquamarine"/>
<rect
    y="100"
    height="17.5"
    width="64.81481481481481" 
    fill="aquamarine"/>
<rect
    y="125"
    height="17.5"
    width="55.55555555555555" 
    fill="aquamarine"/>
<rect
    y="150"
    height="17.5"
    width="46.29629629629629" 
    fill="aquamarine"/>
<rect
    y="175"
    height="17.5"
    width="27.777777777777775" 
    fill="aquamarine"/>
<rect
    y="200"
    height="17.5"
    width="9.25925925925926" 
    fill="aquamarine"/>
<rect
    y="225"
    height="17.5"
    width="9.25925925925926" 
    fill="aquamarine"/>
<rect
    y="250"
    height="17.5"
    width="9.25925925925926" 
    fill="aquamarine"/>
<rect
    y="275"
    height="17.5"
    width="18.51851851851852" 
    fill="aquamarine"/>
<rect
    y="300"
    height="17.5"
    width="64.81481481481481" 
    fill="aquamarine"/>
<rect
    y="325"
    height="17.5"
    width="9.25925925925926" 
    fill="aquamarine"/>
<rect
    y="350"
    height="17.5"
    width="46.29629629629629" 
    fill="aquamarine"/>
<rect
    y="375"
    height="17.5"
    width="138.88888888888889" 
    fill="aquamarine"/>
<rect
    y="400"
    height="17.5"
    width="37.03703703703704" 
    fill="aquamarine"/>
<rect
    y="425"
    height="17.5"
    width="18.51851851851852" 
    fill="aquamarine"/>
<rect
    y="450"
    height="17.5"
    width="9.25925925925926" 
    fill="aquamarine"/>
<rect
    y="475"
    height="17.5"
    width="9.25925925925926" 
    fill="aquamarine"/>
    <text
    x="-100"
    y="12.25"
    fill="black">
    Canada
  </text>
<text
    x="-100"
    y="37.25"
    fill="black">
    Norway
  </text>
<text
    x="-100"
    y="62.25"
    fill="black">
    USA
  </text>
<text
    x="-100"
    y="87.25"
    fill="black">
    Austria
  </text>
<text
    x="-100"
    y="112.25"
    fill="black">
    Germany
  </text>
<text
    x="-100"
    y="137.25"
    fill="black">
    Netherlands
  </text>
<text
    x="-100"
    y="162.25"
    fill="black">
    Australia
  </text>
<text
    x="-100"
    y="187.25"
    fill="black">
    Liechtenstein
  </text>
<text
    x="-100"
    y="212.25"
    fill="black">
    Korea
  </text>
<text
    x="-100"
    y="237.25"
    fill="black">
    Czech Rep
  </text>
<text
    x="-100"
    y="262.25"
    fill="black">
    Spain
  </text>
<text
    x="-100"
    y="287.25"
    fill="black">
    Sweden
  </text>
<text
    x="-100"
    y="312.25"
    fill="black">
    Switzerland
  </text>
<text
    x="-100"
    y="337.25"
    fill="black">
    Italy
  </text>
<text
    x="-100"
    y="362.25"
    fill="black">
    New Zealand
  </text>
<text
    x="-100"
    y="387.25"
    fill="black">
    Luxembourg
  </text>
<text
    x="-100"
    y="412.25"
    fill="black">
    Iceland
  </text>
<text
    x="-100"
    y="437.25"
    fill="black">
    Malta
  </text>
<text
    x="-100"
    y="462.25"
    fill="black">
    Belgium
  </text>
<text
    x="-100"
    y="487.25"
    fill="black">
    Finland
  </text>
    <text
    x="515"
    y="12.25"
    fill="black"
    text-anchor="end">
    54
    </text>
<text
    x="70.55555555555554"
    y="37.25"
    fill="black"
    text-anchor="end">
    6
    </text>
<text
    x="209.44444444444446"
    y="62.25"
    fill="black"
    text-anchor="end">
    21
    </text>
<text
    x="52.03703703703704"
    y="87.25"
    fill="black"
    text-anchor="end">
    4
    </text>
<text
    x="79.81481481481481"
    y="112.25"
    fill="black"
    text-anchor="end">
    7
    </text>
<text
    x="70.55555555555554"
    y="137.25"
    fill="black"
    text-anchor="end">
    6
    </text>
<text
    x="61.29629629629629"
    y="162.25"
    fill="black"
    text-anchor="end">
    5
    </text>
<text
    x="42.77777777777777"
    y="187.25"
    fill="black"
    text-anchor="end">
    3
    </text>
<text
    x="24.25925925925926"
    y="212.25"
    fill="black"
    text-anchor="end">
    1
    </text>
<text
    x="24.25925925925926"
    y="237.25"
    fill="black"
    text-anchor="end">
    1
    </text>
<text
    x="24.25925925925926"
    y="262.25"
    fill="black"
    text-anchor="end">
    1
    </text>
<text
    x="33.51851851851852"
    y="287.25"
    fill="black"
    text-anchor="end">
    2
    </text>
<text
    x="79.81481481481481"
    y="312.25"
    fill="black"
    text-anchor="end">
    7
    </text>
<text
    x="24.25925925925926"
    y="337.25"
    fill="black"
    text-anchor="end">
    1
    </text>
<text
    x="61.29629629629629"
    y="362.25"
    fill="black"
    text-anchor="end">
    5
    </text>
<text
    x="153.88888888888889"
    y="387.25"
    fill="black"
    text-anchor="end">
    15
    </text>
<text
    x="52.03703703703704"
    y="412.25"
    fill="black"
    text-anchor="end">
    4
    </text>
<text
    x="33.51851851851852"
    y="437.25"
    fill="black"
    text-anchor="end">
    2
    </text>
<text
    x="24.25925925925926"
    y="462.25"
    fill="black"
    text-anchor="end">
    1
    </text>
<text
    x="24.25925925925926"
    y="487.25"
    fill="black"
    text-anchor="end">
    1
    </text>
  </svg>
